<svg width="1500" height="600" viewBox="0 0 1500 600" fill="none" xmlns="http://www.w3.org/2000/svg">
<path fill-rule="evenodd" clip-rule="evenodd" d="M113.673 16.5304C113.672 16.4649 113.671 16.3991 113.671 16.3333C113.671 8.96954 119.641 3 127.005 3C134.368 3 140.338 8.96954 140.338 16.3333C140.338 23.6971 134.368 29.6667 127.005 29.6667C121.446 29.6667 116.681 26.2647 114.68 21.4291C92.0667 26.338 75.623 31.4126 63.4904 38.5C49.4712 46.6894 41.1168 57.6259 35.8333 74.5908V281.5C42.0022 282.671 46.6667 288.091 46.6667 294.6C46.6667 301.964 40.6971 307.933 33.3333 307.933C25.9695 307.933 20 301.964 20 294.6C20 288.091 24.6645 282.671 30.8333 281.5V74.2129V73.8373L30.9437 73.4783C36.5473 55.2482 45.6501 43.1309 60.9684 34.1827C73.7855 26.6954 90.8841 21.4733 113.673 16.5304ZM440.076 448.003C440.083 448.179 440.086 448.357 440.086 448.534C440.086 455.898 434.117 461.868 426.753 461.868C419.389 461.868 413.42 455.898 413.42 448.534C413.42 441.171 419.389 435.201 426.753 435.201C432.194 435.201 436.873 438.46 438.946 443.131C461.583 437.593 478.024 431.874 490.153 423.884C504.19 414.638 512.606 402.238 517.924 382.93V147.844C511.756 146.674 507.091 141.254 507.091 134.745C507.091 127.381 513.061 121.411 520.424 121.411C527.788 121.411 533.758 127.381 533.758 134.745C533.758 141.254 529.093 146.674 522.924 147.844V383.266V383.601L522.836 383.923C517.269 404.349 508.225 417.967 492.904 428.06C480.057 436.522 462.913 442.421 440.076 448.003ZM520.424 74.0468C519.769 74.0468 519.125 74.094 518.495 74.1853C512.532 58.1252 506.105 45.8394 497.076 36.5114C485.774 24.8346 470.662 18.0531 448.141 13.8753L447.915 13.8333H447.685H183.817C182.647 7.66451 177.227 3 170.718 3C163.354 3 157.385 8.96954 157.385 16.3333C157.385 23.6971 163.354 29.6667 170.718 29.6667C177.227 29.6667 182.647 25.0022 183.817 18.8333H447.455C469.291 22.9108 483.211 29.3761 493.483 39.9888C501.821 48.6023 507.927 60.1161 513.769 75.8242C509.777 78.128 507.091 82.4403 507.091 87.3801C507.091 94.7439 513.061 100.713 520.424 100.713C527.788 100.713 533.758 94.7439 533.758 87.3801C533.758 80.0163 527.788 74.0468 520.424 74.0468ZM32.9048 355.291C37.308 382.017 41.9149 401.887 48.5645 416.684C56.3313 433.967 66.9189 444.405 83.0633 450.856L83.5099 451.034H83.9909H263.779C264.95 457.203 270.37 461.868 276.879 461.868C284.243 461.868 290.212 455.898 290.212 448.534C290.212 441.171 284.243 435.201 276.879 435.201C270.37 435.201 264.95 439.866 263.779 446.034H84.476C69.8885 440.095 60.3352 430.679 53.1251 414.635C46.7475 400.443 42.2322 381.128 37.8449 354.515C42.9884 352.666 46.6667 347.745 46.6667 341.964C46.6667 334.6 40.6971 328.631 33.3333 328.631C25.9695 328.631 20 334.6 20 341.964C20 349.185 25.7393 355.065 32.9048 355.291ZM294.769 481.097C294.769 488.461 300.739 494.431 308.103 494.431C310.348 494.431 312.464 493.876 314.321 492.895L393.575 592.187L398.029 597.767V590.628V494.197C404.198 493.027 408.863 487.607 408.863 481.097C408.863 473.734 402.893 467.764 395.529 467.764C388.165 467.764 382.196 473.734 382.196 481.097C382.196 487.607 386.86 493.027 393.029 494.197V583.488L318.227 489.774C320.227 487.442 321.436 484.411 321.436 481.097C321.436 473.734 315.467 467.764 308.103 467.764C300.739 467.764 294.769 473.734 294.769 481.097Z" fill="#A4243B"/>
<path fill-rule="evenodd" clip-rule="evenodd" d="M185.192 63H185.989H231.21H279.549H327.889H376.228H377.026L377.604 63.5486L464.927 146.338L465.551 146.93V147.79V201.011V201.871L464.927 202.463L450.701 215.95C451.768 217.611 452.387 219.588 452.387 221.709C452.387 227.6 447.611 232.375 441.72 232.375C435.829 232.375 431.054 227.6 431.054 221.709C431.054 215.818 435.829 211.042 441.72 211.042C444.045 211.042 446.196 211.786 447.948 213.048L461.551 200.152V148.649L375.431 67H327.889H279.549H231.21H186.787L132.596 118.377C133.664 120.038 134.283 122.014 134.283 124.135C134.283 130.026 129.507 134.802 123.616 134.802C117.725 134.802 112.949 130.026 112.949 124.135C112.949 118.244 117.725 113.469 123.616 113.469C125.941 113.469 128.092 114.212 129.844 115.475L184.613 63.5486L185.192 63ZM260.837 105.234C254.946 105.234 250.171 100.459 250.171 94.5677C250.171 88.6766 254.946 83.901 260.837 83.901C266.045 83.901 270.381 87.6326 271.317 92.5677H363.754H364.551L365.13 93.1163L404.306 130.259C406.058 128.996 408.209 128.253 410.534 128.253C416.425 128.253 421.2 133.028 421.2 138.919C421.2 144.81 416.425 149.586 410.534 149.586C404.643 149.586 399.867 144.81 399.867 138.919C399.867 136.798 400.486 134.822 401.553 133.161L362.956 96.5677H271.317C270.381 101.503 266.045 105.234 260.837 105.234ZM204.701 108.191C198.81 108.191 194.035 103.415 194.035 97.5245C194.035 91.6334 198.81 86.8578 204.701 86.8578C210.592 86.8578 215.368 91.6334 215.368 97.5245C215.368 99.6454 214.749 101.622 213.682 103.283L258.516 145.79H297.138C298.074 140.854 302.41 137.123 307.618 137.123C313.509 137.123 318.284 141.898 318.284 147.79C318.284 153.681 313.509 158.456 307.618 158.456C302.41 158.456 298.074 154.725 297.138 149.79H257.719H256.921L256.343 149.241L210.929 106.185C209.177 107.447 207.026 108.191 204.701 108.191ZM162.848 130.049C162.848 135.94 167.624 140.716 173.515 140.716C175.839 140.716 177.99 139.972 179.743 138.71L199.583 157.52V181.662C194.648 182.598 190.916 186.934 190.916 192.141C190.916 198.032 195.692 202.808 201.583 202.808C207.474 202.808 212.249 198.032 212.249 192.141C212.249 186.934 208.518 182.598 203.583 181.662V156.66V155.8L202.959 155.208L182.495 135.807C183.562 134.146 184.181 132.17 184.181 130.049C184.181 124.158 179.406 119.382 173.515 119.382C167.624 119.382 162.848 124.158 162.848 130.049ZM96.6667 170.096C91.7316 169.16 88 164.824 88 159.617C88 153.726 92.7756 148.95 98.6667 148.95C104.558 148.95 109.333 153.726 109.333 159.617C109.333 164.824 105.602 169.16 100.667 170.096V212.017L146.282 258.147H219.171C220.108 253.212 224.443 249.48 229.651 249.48C235.542 249.48 240.318 254.256 240.318 260.147C240.318 266.038 235.542 270.813 229.651 270.813C224.443 270.813 220.108 267.082 219.171 262.147H145.447H144.612L144.025 261.553L97.2445 214.245L96.6667 213.66V212.838V170.096ZM125.424 192.141C125.424 198.032 130.2 202.808 136.091 202.808C138.415 202.808 140.566 202.064 142.319 200.802L172.139 229.074L172.717 229.622H173.515H232.77H233.567L234.146 229.074L263.966 200.802C265.718 202.064 267.869 202.808 270.194 202.808C276.085 202.808 280.86 198.032 280.86 192.141C280.86 186.25 276.085 181.474 270.194 181.474C264.303 181.474 259.527 186.25 259.527 192.141C259.527 194.262 260.146 196.238 261.213 197.899L231.972 225.622H174.312L145.071 197.899C146.138 196.238 146.757 194.262 146.757 192.141C146.757 186.25 141.982 181.474 136.091 181.474C130.2 181.474 125.424 186.25 125.424 192.141ZM427.935 266.06C427.935 271.268 431.667 275.603 436.602 276.54V282.941L409.736 308.412H379.347H378.55L377.971 308.96L353.022 332.614L352.398 333.206V334.066V388.635C347.463 389.571 343.731 393.907 343.731 399.115C343.731 405.006 348.507 409.781 354.398 409.781C360.289 409.781 365.064 405.006 365.064 399.115C365.064 393.907 361.333 389.571 356.398 388.635V334.926L380.144 312.412H410.534H411.331L411.91 311.863L439.978 285.252L440.602 284.661V283.801V276.54C445.537 275.603 449.268 271.268 449.268 266.06C449.268 260.169 444.493 255.393 438.602 255.393C432.711 255.393 427.935 260.169 427.935 266.06ZM256.408 277.887C256.408 283.778 261.184 288.554 267.075 288.554C269.399 288.554 271.55 287.81 273.303 286.548L314.974 326.055V356.111C310.039 357.047 306.307 361.383 306.307 366.59C306.307 372.481 311.083 377.257 316.974 377.257C322.865 377.257 327.64 372.481 327.64 366.59C327.64 361.383 323.909 357.047 318.974 356.111V325.196V324.336L318.35 323.744L276.055 283.645C277.122 281.985 277.741 280.008 277.741 277.887C277.741 271.996 272.966 267.221 267.075 267.221C261.184 267.221 256.408 271.996 256.408 277.887ZM340.613 130.049C340.613 135.256 344.344 139.592 349.279 140.528V170.611L291.812 227.689C290.098 226.514 288.023 225.826 285.787 225.826C279.896 225.826 275.121 230.602 275.121 236.493C275.121 242.384 279.896 247.159 285.787 247.159C291.678 247.159 296.454 242.384 296.454 236.493C296.454 234.283 295.782 232.23 294.631 230.527L352.689 172.863L353.279 172.276V171.444V140.528C358.214 139.592 361.946 135.256 361.946 130.049C361.946 124.158 357.17 119.382 351.279 119.382C345.388 119.382 340.613 124.158 340.613 130.049ZM415.648 175.357H391.822H390.955L390.363 175.989L347.631 221.567C345.981 220.519 344.023 219.912 341.923 219.912C336.032 219.912 331.256 224.688 331.256 230.579C331.256 236.47 336.032 241.246 341.923 241.246C347.814 241.246 352.59 236.47 352.59 230.579C352.59 228.233 351.832 226.064 350.549 224.303L392.688 179.357H415.648C416.584 184.292 420.92 188.024 426.127 188.024C432.018 188.024 436.794 183.248 436.794 177.357C436.794 171.466 432.018 166.691 426.127 166.691C420.92 166.691 416.584 170.422 415.648 175.357ZM379.347 243.363H393.817C394.753 238.428 399.089 234.696 404.297 234.696C410.188 234.696 414.963 239.472 414.963 245.363C414.963 251.254 410.188 256.03 404.297 256.03C399.089 256.03 394.753 252.298 393.817 247.363H380.145L349.537 276.382L348.958 276.931H348.16H327.453C326.517 281.866 322.181 285.597 316.974 285.597C311.083 285.597 306.307 280.822 306.307 274.931C306.307 269.04 311.083 264.264 316.974 264.264C322.181 264.264 326.517 267.995 327.453 272.931H347.363L377.971 243.911L378.55 243.363H379.347Z" fill="#FFBD59"/>
<path fill-rule="evenodd" clip-rule="evenodd" d="M1445.49 119.49C1435.18 110.564 1420.82 105.631 1400.23 106.022C1378.8 107.356 1363.99 110.151 1353.31 117.866C1342.76 125.5 1335.9 138.23 1331.17 160.394C1331.2 177.232 1334.88 190.464 1345.3 204.148C1355.84 218.001 1373.34 232.391 1401.22 251.316C1414.94 259.436 1425.1 266.273 1432.49 272.278C1439.89 278.284 1444.62 283.535 1447.38 288.504C1453.02 298.694 1450.06 307.207 1446.49 316.879L1446.48 316.896L1446.48 316.913C1442.25 327.735 1436.39 336.336 1428.65 342.097C1420.87 347.878 1411.36 350.688 1400.06 350.165L1400.05 350.164L1400.04 350.163C1388.26 349.471 1379.42 347 1371.17 341.743C1362.99 336.531 1355.52 328.659 1346.34 317.453C1345.64 316.598 1345.77 315.338 1346.63 314.639C1347.48 313.939 1348.74 314.065 1349.44 314.919C1358.57 326.08 1365.71 333.522 1373.32 338.369C1380.85 343.17 1388.99 345.506 1400.26 346.169C1410.73 346.652 1419.31 344.055 1426.26 338.887C1433.23 333.7 1438.71 325.812 1442.74 315.476C1446.34 305.722 1448.55 298.87 1443.88 290.443C1441.47 286.102 1437.17 281.229 1429.97 275.384C1422.78 269.546 1412.8 262.813 1399.13 254.726L1399.08 254.695L1399.03 254.66C1371.08 235.693 1353.09 220.989 1342.12 206.57C1331.05 192.031 1327.17 177.859 1327.17 160.183L1327.17 159.973L1327.22 159.768C1332.03 137.103 1339.19 123.142 1350.97 114.625C1362.67 106.169 1378.55 103.361 1400.03 102.027L1400.07 102.024L1400.11 102.023C1421.42 101.611 1436.85 106.719 1448.11 116.465C1456.77 123.963 1462.81 134.075 1467.22 146.143L1467.23 146.143C1473.7 146.143 1478.93 151.382 1478.93 157.843C1478.93 164.305 1473.7 169.544 1467.23 169.544C1460.77 169.544 1455.53 164.305 1455.53 157.843C1455.53 152.793 1458.73 148.49 1463.22 146.851C1458.99 135.518 1453.34 126.284 1445.49 119.49ZM1084.21 133.415C1089.57 132.347 1093.61 127.615 1093.61 121.94C1093.61 115.478 1088.37 110.24 1081.91 110.24C1075.45 110.24 1070.21 115.478 1070.21 121.94C1070.21 127.824 1074.55 132.694 1080.21 133.517C1080.22 135.768 1080.23 138.004 1080.24 140.225V140.226C1080.55 201.697 1080.8 251.531 1089.07 287.57C1093.55 307.137 1100.45 322.865 1111.17 334.237C1121.93 345.654 1136.39 352.507 1155.65 354.616L1155.82 354.635L1155.99 354.625C1179.26 353.245 1196.41 347.134 1208.95 336.406C1221.48 325.684 1229.18 310.55 1233.95 291.58C1238.72 272.629 1240.6 249.69 1241.4 223.183C1241.9 206.402 1241.97 188.107 1242.04 168.428V168.416L1242.04 168.384V168.379V168.373V168.368V168.363V168.358V168.353V168.348V168.343V168.338V168.334V168.329V168.325V168.321V168.317V168.313C1242.08 156.954 1242.12 145.136 1242.25 132.882L1238.25 132.839C1238.12 145.197 1238.08 157.078 1238.04 168.474V168.484C1237.97 188.122 1237.9 206.325 1237.4 223.064C1236.61 249.509 1234.73 272.091 1230.07 290.604C1225.42 309.097 1218.04 323.368 1206.35 333.367C1194.7 343.335 1178.53 349.256 1155.92 350.622C1137.52 348.577 1124.05 342.071 1114.08 331.493C1104.03 320.839 1097.37 305.88 1092.97 286.676C1084.81 251.093 1084.55 201.712 1084.24 139.995V139.994L1084.24 139.713L1084.24 139.549C1084.23 137.518 1084.22 135.473 1084.21 133.415ZM759.762 123.5C759.762 123.977 759.734 124.446 759.678 124.908C808.395 139.159 844.004 184.47 844.004 238.162C844.004 298.293 799.343 347.911 741.627 355.164V349.22C796.103 342.004 838.154 295.032 838.154 238.162C838.154 186.956 804.061 143.774 757.502 130.414C755.373 133.316 751.938 135.2 748.062 135.2C741.6 135.2 736.362 129.962 736.362 123.5C736.362 117.038 741.6 111.8 748.062 111.8C754.524 111.8 759.762 117.038 759.762 123.5ZM610 238.162C610 178.032 654.661 128.413 712.377 121.16V127.105C657.901 134.321 615.85 181.292 615.85 238.162C615.85 292.831 654.709 338.353 706.109 348.205C707.9 344.04 712.04 341.124 716.862 341.124C723.324 341.124 728.562 346.362 728.562 352.824C728.562 359.286 723.324 364.524 716.862 364.524C710.81 364.524 705.831 359.929 705.224 354.038C651.012 343.753 610 295.784 610 238.162ZM1166.35 333.757C1178.97 333.204 1188.94 327.795 1196.66 317.939C1204.33 308.14 1209.74 294.007 1213.51 276.03C1220.62 242.198 1222.09 194.002 1221.35 133.441C1226.78 132.426 1230.89 127.663 1230.89 121.94C1230.89 115.478 1225.65 110.24 1219.19 110.24C1212.73 110.24 1207.49 115.478 1207.49 121.94C1207.49 127.777 1211.76 132.616 1217.35 133.497C1218.09 194.058 1216.6 241.847 1209.6 275.208C1205.88 292.933 1200.64 306.374 1193.51 315.473C1186.45 324.482 1177.51 329.292 1166.07 329.765L1165.95 329.77L1165.83 329.79C1152.63 331.942 1142.47 328.064 1134.52 319.338C1126.45 310.485 1120.55 296.53 1116.38 278.419C1108.07 242.224 1106.9 190.47 1108.09 132.902L1104.09 132.819C1102.9 190.358 1104.04 242.576 1112.49 279.315C1116.7 297.672 1122.8 312.425 1131.56 322.033C1140.41 331.742 1151.89 336.081 1166.35 333.757ZM917.765 141.27L917.765 343.714H913.765L913.765 141.27C908.256 140.321 904.065 135.52 904.065 129.74C904.065 123.279 909.303 118.04 915.765 118.04C922.227 118.04 927.465 123.279 927.465 129.74C927.465 135.52 923.274 140.321 917.765 141.27ZM952.426 340.344C952.426 334.459 948.081 329.589 942.424 328.766V130.386H938.424V328.87C933.064 329.939 929.025 334.67 929.025 340.344C929.025 346.806 934.264 352.044 940.725 352.044C947.187 352.044 952.426 346.806 952.426 340.344ZM633.4 249.862C639.203 296.035 678.897 331.764 727.002 331.764C771 331.764 807.963 301.874 818.393 261.442C824.054 260.623 828.404 255.751 828.404 249.862C828.404 243.401 823.165 238.162 816.703 238.162C810.242 238.162 805.003 243.401 805.003 249.862C805.003 255.248 808.642 259.783 813.595 261.145C803.385 299.115 768.485 327.083 727.002 327.083C681.506 327.083 643.928 293.442 638.156 249.862H633.4ZM820.603 226.462H815.848C810.075 182.881 772.498 149.24 727.002 149.24C685.519 149.24 650.619 177.209 640.409 215.179C645.362 216.54 649.001 221.076 649.001 226.462C649.001 232.923 643.762 238.162 637.3 238.162C630.839 238.162 625.6 232.923 625.6 226.462C625.6 220.573 629.95 215.701 635.611 214.882C646.041 174.45 683.004 144.561 727.002 144.561C775.106 144.561 814.801 180.289 820.603 226.462ZM975.368 134.984C973.445 138.813 969.482 141.441 964.906 141.441C958.444 141.441 953.206 136.202 953.206 129.74C953.206 123.279 958.444 118.04 964.906 118.04C971.04 118.04 976.071 122.76 976.566 128.767C997.522 136.396 1012.49 156.495 1012.49 180.088C1012.49 208.133 991.342 231.24 964.126 234.336V228.05C987.887 224.989 1006.25 204.683 1006.25 180.088C1006.25 159.544 993.436 141.992 975.368 134.984ZM1379.02 128.533C1396.84 124.599 1409.46 124.426 1419.19 128.69C1428.9 132.944 1436.17 141.817 1442.78 157.078C1443.22 158.092 1444.4 158.557 1445.41 158.118C1446.42 157.679 1446.89 156.502 1446.45 155.488C1439.67 139.837 1431.85 129.872 1420.79 125.026C1409.8 120.211 1396.04 120.65 1377.88 124.69L1377.6 124.752L1377.35 124.888C1367.38 130.352 1360.66 135.524 1356.36 142.249C1352.05 148.984 1350.32 157.027 1349.79 167.886L1349.79 167.958L1349.79 168.029C1350.1 181.463 1354.15 191.731 1363.29 201.462C1372.3 211.069 1386.25 220.124 1406.19 231.347L1406.2 231.353C1425.1 241.835 1436.14 249.224 1443.67 255.846C1451.1 262.392 1455.16 268.238 1460.01 275.805C1465.02 286.748 1467.65 295.264 1467.76 304.073C1467.88 312.874 1465.48 322.18 1460.03 334.688C1453.39 343.843 1447.97 350.453 1440.4 355.352C1432.8 360.265 1422.86 363.565 1407.01 365.671C1374.3 366.639 1346.2 349.841 1329.62 327.07C1333.08 325.04 1335.41 321.275 1335.41 316.966C1335.41 310.504 1330.17 305.266 1323.71 305.266C1317.25 305.266 1312.01 310.504 1312.01 316.966C1312.01 323.428 1317.25 328.666 1323.71 328.666C1324.39 328.666 1325.06 328.608 1325.71 328.496C1342.93 352.715 1372.57 370.73 1407.23 369.666L1407.34 369.663L1407.44 369.649C1423.64 367.506 1434.26 364.084 1442.57 358.711C1450.87 353.345 1456.67 346.141 1463.39 336.859L1463.52 336.685L1463.61 336.487C1469.23 323.638 1471.89 313.679 1471.76 304.022C1471.64 294.361 1468.72 285.217 1463.59 274.012L1463.53 273.884L1463.46 273.766C1458.51 266.041 1454.21 259.795 1446.31 252.844C1438.46 245.935 1427.12 238.38 1408.15 227.858C1388.2 216.63 1374.75 207.835 1366.2 198.725C1357.79 189.756 1354.09 180.459 1353.79 168.009C1354.31 157.466 1355.98 150.264 1359.73 144.404C1363.46 138.571 1369.41 133.825 1379.02 128.533Z" fill="#FFBD59"/>
</svg>
