<svg width="600" height="600" viewBox="0 0 600 600" fill="none" xmlns="http://www.w3.org/2000/svg">
<path fill-rule="evenodd" clip-rule="evenodd" d="M134.673 16.5304C134.672 16.4649 134.671 16.3991 134.671 16.3333C134.671 8.96954 140.641 3 148.005 3C155.368 3 161.338 8.96954 161.338 16.3333C161.338 23.6971 155.368 29.6667 148.005 29.6667C142.446 29.6667 137.681 26.2647 135.68 21.4291C113.067 26.338 96.623 31.4126 84.4904 38.5C70.4712 46.6894 62.1168 57.6259 56.8333 74.5908V281.5C63.0022 282.671 67.6667 288.091 67.6667 294.6C67.6667 301.964 61.6971 307.933 54.3333 307.933C46.9695 307.933 41 301.964 41 294.6C41 288.091 45.6645 282.671 51.8333 281.5V74.2129V73.8373L51.9437 73.4783C57.5473 55.2482 66.6501 43.1309 81.9684 34.1827C94.7855 26.6954 111.884 21.4733 134.673 16.5304ZM461.076 448.003C461.083 448.179 461.086 448.357 461.086 448.534C461.086 455.898 455.117 461.868 447.753 461.868C440.389 461.868 434.42 455.898 434.42 448.534C434.42 441.171 440.389 435.201 447.753 435.201C453.194 435.201 457.873 438.46 459.946 443.131C482.583 437.593 499.024 431.874 511.153 423.884C525.19 414.638 533.606 402.238 538.924 382.93V147.844C532.756 146.674 528.091 141.254 528.091 134.745C528.091 127.381 534.061 121.411 541.424 121.411C548.788 121.411 554.758 127.381 554.758 134.745C554.758 141.254 550.093 146.674 543.924 147.844V383.266V383.601L543.836 383.923C538.269 404.349 529.225 417.967 513.904 428.06C501.057 436.522 483.913 442.421 461.076 448.003ZM541.424 74.0468C540.769 74.0468 540.125 74.094 539.495 74.1853C533.531 58.1252 527.105 45.8394 518.076 36.5114C506.774 24.8346 491.661 18.0531 469.141 13.8753L468.915 13.8333H468.685H204.817C203.647 7.66451 198.227 3 191.718 3C184.354 3 178.385 8.96954 178.385 16.3333C178.385 23.6971 184.354 29.6667 191.718 29.6667C198.227 29.6667 203.647 25.0022 204.817 18.8333H468.455C490.291 22.9108 504.211 29.3761 514.483 39.9888C522.82 48.6023 528.927 60.1161 534.769 75.8242C530.777 78.128 528.091 82.4404 528.091 87.3801C528.091 94.7439 534.061 100.713 541.424 100.713C548.788 100.713 554.758 94.7439 554.758 87.3801C554.758 80.0163 548.788 74.0468 541.424 74.0468ZM53.9048 355.291C58.308 382.017 62.9149 401.887 69.5645 416.684C77.3313 433.967 87.9188 444.405 104.063 450.856L104.51 451.034H104.991H284.779C285.95 457.203 291.369 461.868 297.879 461.868C305.243 461.868 311.212 455.898 311.212 448.534C311.212 441.171 305.243 435.201 297.879 435.201C291.369 435.201 285.95 439.866 284.779 446.034H105.476C90.8885 440.095 81.3352 430.679 74.1251 414.635C67.7475 400.443 63.2322 381.128 58.8449 354.515C63.9884 352.666 67.6667 347.745 67.6667 341.964C67.6667 334.6 61.6971 328.631 54.3333 328.631C46.9695 328.631 41 334.6 41 341.964C41 349.185 46.7393 355.065 53.9048 355.291ZM315.769 481.097C315.769 488.461 321.739 494.431 329.103 494.431C331.348 494.431 333.464 493.876 335.321 492.895L414.575 592.187L419.029 597.767V590.628V494.197C425.198 493.027 429.863 487.607 429.863 481.097C429.863 473.734 423.893 467.764 416.529 467.764C409.165 467.764 403.196 473.734 403.196 481.097C403.196 487.607 407.86 493.027 414.029 494.197V583.488L339.227 489.774C341.227 487.442 342.436 484.411 342.436 481.097C342.436 473.734 336.466 467.764 329.103 467.764C321.739 467.764 315.769 473.734 315.769 481.097Z" fill="#A4243B"/>
<path fill-rule="evenodd" clip-rule="evenodd" d="M207.603 63H208.4H253.834H302.401H350.967H399.534H400.332L400.91 63.5486L488.644 146.728L489.268 147.319V148.179V201.651V202.511L488.644 203.103L474.315 216.688C475.382 218.349 476.001 220.325 476.001 222.446C476.001 228.337 471.226 233.113 465.334 233.113C459.443 233.113 454.668 228.337 454.668 222.446C454.668 216.555 459.443 211.779 465.334 211.779C467.659 211.779 469.81 212.523 471.562 213.785L485.268 200.791V149.039L398.737 67H350.967H302.401H253.834H209.198L154.714 118.655C155.781 120.316 156.4 122.293 156.4 124.414C156.4 130.305 151.624 135.08 145.733 135.08C139.842 135.08 135.067 130.305 135.067 124.414C135.067 118.523 139.842 113.747 145.733 113.747C148.058 113.747 150.209 114.491 151.961 115.753L207.024 63.5486L207.603 63ZM283.6 105.373C277.709 105.373 272.934 100.598 272.934 94.7068C272.934 88.8158 277.709 84.0401 283.6 84.0401C288.808 84.0401 293.144 87.7717 294.08 92.7068H387.001H387.798L388.377 93.2554L427.773 130.606C429.525 129.344 431.676 128.6 434.001 128.6C439.892 128.6 444.668 133.376 444.668 139.267C444.668 145.158 439.892 149.934 434.001 149.934C428.11 149.934 423.334 145.158 423.334 139.267C423.334 137.146 423.953 135.17 425.021 133.509L386.203 96.7068H294.08C293.144 101.642 288.808 105.373 283.6 105.373ZM227.2 108.344C221.309 108.344 216.534 103.569 216.534 97.6775C216.534 91.7864 221.309 87.0108 227.2 87.0108C233.091 87.0108 237.867 91.7864 237.867 97.6775C237.867 99.7984 237.248 101.775 236.181 103.436L281.265 146.179H320.121C321.057 141.244 325.393 137.512 330.601 137.512C336.492 137.512 341.267 142.288 341.267 148.179C341.267 154.07 336.492 158.846 330.601 158.846C325.393 158.846 321.057 155.114 320.121 150.179H280.467H279.67L279.091 149.63L233.428 106.338C231.676 107.601 229.525 108.344 227.2 108.344ZM185.2 130.355C185.2 136.246 189.976 141.022 195.867 141.022C198.192 141.022 200.343 140.278 202.095 139.016L222.067 157.951V182.26C217.132 183.196 213.4 187.532 213.4 192.739C213.4 198.63 218.176 203.406 224.067 203.406C229.958 203.406 234.734 198.63 234.734 192.739C234.734 187.532 231.002 183.196 226.067 182.26V157.091V156.231L225.443 155.64L204.847 136.113C205.915 134.452 206.534 132.476 206.534 130.355C206.534 124.464 201.758 119.688 195.867 119.688C189.976 119.688 185.2 124.464 185.2 130.355ZM118.667 170.541C113.732 169.605 110 165.269 110 160.062C110 154.171 114.776 149.395 120.667 149.395C126.558 149.395 131.333 154.171 131.333 160.062C131.333 165.269 127.602 169.605 122.667 170.541V212.712L168.502 259.065H241.788C242.724 254.13 247.06 250.398 252.267 250.398C258.158 250.398 262.934 255.174 262.934 261.065C262.934 266.956 258.158 271.732 252.267 271.732C247.06 271.732 242.724 268 241.788 263.065H167.667H166.832L166.245 262.471L119.245 214.94L118.667 214.356V213.534V170.541ZM147.6 192.739C147.6 198.63 152.376 203.406 158.267 203.406C160.591 203.406 162.742 202.662 164.495 201.4L194.491 229.839L195.07 230.387H195.867H255.401H256.198L256.777 229.839L286.773 201.4C288.525 202.662 290.676 203.406 293.001 203.406C298.892 203.406 303.667 198.63 303.667 192.739C303.667 186.848 298.892 182.072 293.001 182.072C287.11 182.072 282.334 186.848 282.334 192.739C282.334 194.86 282.953 196.836 284.02 198.497L254.603 226.387H196.664L167.247 198.497C168.314 196.836 168.934 194.86 168.934 192.739C168.934 186.848 164.158 182.072 158.267 182.072C152.376 182.072 147.6 186.848 147.6 192.739ZM451.534 267.006C451.534 272.214 455.266 276.55 460.201 277.486V283.97L433.204 309.566H402.668H401.87L401.292 310.115L376.225 333.88L375.601 334.472V335.332V390.207C370.666 391.143 366.934 395.479 366.934 400.687C366.934 406.578 371.71 411.353 377.601 411.353C383.492 411.353 388.267 406.578 388.267 400.687C388.267 395.479 384.536 391.143 379.601 390.207V336.192L403.465 313.566H434.001H434.798L435.377 313.018L463.577 286.282L464.201 285.69V284.83V277.486C469.136 276.55 472.868 272.214 472.868 267.006C472.868 261.115 468.092 256.34 462.201 256.34C456.31 256.34 451.534 261.115 451.534 267.006ZM279.2 278.889C279.2 284.78 283.976 289.556 289.867 289.556C292.192 289.556 294.343 288.812 296.095 287.55L338.001 327.28V357.53C333.066 358.466 329.334 362.802 329.334 368.009C329.334 373.9 334.11 378.676 340.001 378.676C345.892 378.676 350.667 373.9 350.667 368.009C350.667 362.802 346.936 358.466 342.001 357.53V326.42V325.56L341.377 324.968L298.848 284.647C299.915 282.986 300.534 281.01 300.534 278.889C300.534 272.998 295.758 268.222 289.867 268.222C283.976 268.222 279.2 272.998 279.2 278.889ZM363.801 130.355C363.801 135.563 367.533 139.898 372.468 140.835V171.112L314.693 228.496C312.978 227.321 310.903 226.633 308.668 226.633C302.776 226.633 298.001 231.409 298.001 237.3C298.001 243.191 302.776 247.966 308.668 247.966C314.559 247.966 319.334 243.191 319.334 237.3C319.334 235.09 318.662 233.037 317.512 231.334L375.877 173.364L376.468 172.777V171.945V140.835C381.403 139.898 385.134 135.563 385.134 130.355C385.134 124.464 380.359 119.688 374.468 119.688C368.577 119.688 363.801 124.464 363.801 130.355ZM439.188 175.886H415.201H414.335L413.742 176.518L370.776 222.346C369.125 221.298 367.167 220.691 365.068 220.691C359.177 220.691 354.401 225.467 354.401 231.358C354.401 237.249 359.177 242.025 365.068 242.025C370.959 242.025 375.734 237.249 375.734 231.358C375.734 229.012 374.977 226.843 373.693 225.082L416.068 179.886H439.188C440.125 184.821 444.46 188.553 449.668 188.553C455.559 188.553 460.335 183.777 460.335 177.886C460.335 171.995 455.559 167.219 449.668 167.219C444.46 167.219 440.125 170.951 439.188 175.886ZM402.668 244.211H417.255C418.191 239.276 422.527 235.545 427.734 235.545C433.625 235.545 438.401 240.32 438.401 246.211C438.401 252.102 433.625 256.878 427.734 256.878C422.527 256.878 418.191 253.146 417.255 248.211H403.465L372.71 277.37L372.132 277.918H371.334H350.48C349.544 282.853 345.208 286.585 340.001 286.585C334.11 286.585 329.334 281.809 329.334 275.918C329.334 270.027 334.11 265.251 340.001 265.251C345.208 265.251 349.544 268.983 350.48 273.918H370.537L401.292 244.76L401.87 244.211H402.668Z" fill="#FFBD59"/>
</svg>
