<svg width="64" height="64" viewBox="0 0 64 64" fill="none" xmlns="http://www.w3.org/2000/svg">
<path fill-rule="evenodd" clip-rule="evenodd" d="M57.1316 5.09304C56.0636 4.09001 54.5784 3.4294 52.0839 3H19.6846V3.0166C14.1969 3.0166 10.4801 3.37163 8.00142 4.15188C5.66509 4.88734 4.53974 5.95943 4 7.41482V30.6665H4.01826C4.01826 34.8362 4.58775 38.6255 5.58136 41.504C6.5607 44.3412 7.86268 46.048 9.20071 46.6206H31.7068L31.7452 46.5786L31.7911 46.6206H31.8999V46.7201L44.9793 58.6785V46.6665H46.5365C49.999 45.9656 53.0807 45.2906 55.4586 44.2883C57.7944 43.3038 59.2464 42.0893 59.7999 40.4263V9.83897C58.9692 7.55793 58.2061 6.1022 57.1316 5.09304ZM46.9793 48.6174C50.3924 47.9262 53.6553 47.2188 56.2354 46.1313C58.8546 45.0274 60.9859 43.4416 61.7578 40.8675L61.7999 40.727V40.5803V9.1665H61.6835C60.8279 6.81386 59.933 4.98029 58.5007 3.63517C57.0161 2.24086 55.0697 1.47514 52.3347 1.01392L52.2522 1H52.1684H19.3026V1.01717C13.987 1.03312 10.1266 1.38613 7.40088 2.24417C4.54682 3.1426 2.82604 4.63587 2.05269 6.92289L2 7.07873V7.24322V31.0158H2.01954C2.05035 35.2127 2.63626 39.1015 3.69082 42.1566C4.75184 45.2304 6.38446 47.7304 8.66982 48.5605L8.83523 48.6206H9.01122H31.0146L45.3045 61.6858L46.9793 63.2171V60.9478V48.6174Z" fill="#FFBD59"/>
<path d="M23.5187 39.6086C21.0184 37.1088 21.5187 32.6086 21.5187 32.6086C20.5191 33.1086 18.2467 35.8976 11.0187 33.1086C3.79069 30.3195 8.51888 20.6086 8.51888 20.6086C6.51886 15.1085 11.769 9.60879 15.7689 10.1086C18.5189 5.10859 24.5189 4.10875 29.0187 6.60858C33.519 3.60854 40.019 5.10839 42.0187 8.60858C48.519 7.10839 54.519 14.1084 52.0187 19.6086C61.019 23.1084 55.519 33.1084 53.5187 34.6086C53.519 41.1084 48.519 43.1084 44.0187 43.6086C39.5184 44.1088 35.5187 40.1086 35.5187 40.1086C29.5187 42.6084 26.019 42.1084 23.5187 39.6086Z" fill="#F48599"/>
<path d="M23.5187 11.6086C21.1546 13.7282 21.0312 14.7932 21.5187 16.6086M21.5187 16.6086C18.223 18.2136 16.4886 18.829 14.5187 17.1086M21.5187 16.6086C21.6931 18.1625 22.519 19.1084 23.619 19.9084C23.011 21.294 22.8947 22.2573 23.0187 23.6086M23.0187 23.6086C18.8128 24.1562 16.583 24.5518 14.5187 26.6086M23.0187 23.6086C23.2047 25.7566 23.7472 26.6762 25.0187 28.1086M25.0187 28.1086C27.2886 26.7428 28.6066 26.2025 31.0187 25.6086M25.0187 28.1086L21.5187 32.6086M31.0187 25.6086C32.4492 24.8907 33.9757 24.5783 37.5187 24.1086C38.1454 21.6046 38.0042 20.1201 37.0187 17.6086M31.0187 25.6086C30.45 23.6068 30.5656 22.3756 31.0187 20.1086C29.3243 18.7362 29.4462 17.4915 30.0187 15.1086C30.4941 13.7411 31.1347 12.9415 33.0187 11.6086C35.5341 10.5036 36.8337 10.4698 39.0187 11.1086M39.0187 11.1086C42.9944 12.2488 43.9069 13.7905 44.019 17.6084C46.5187 19.1086 47.019 21.6084 45.769 25.1086M39.0187 11.1086C40.019 9.60839 40.519 9.10839 42.0187 8.60858M45.769 25.1086C41.8386 25.8637 40.6735 27.0765 39.5187 30.6086C35.0521 30.9146 32.8544 31.6655 29.5187 34.1086M45.769 25.1086C48.1856 25.477 49.4866 25.9615 51.0187 27.1086M21.5187 32.6086C21.5187 32.6086 21.0184 37.1088 23.5187 39.6086C26.019 42.1084 29.5187 42.6084 35.5187 40.1086M21.5187 32.6086C20.5191 33.1086 18.2467 35.8976 11.0187 33.1086C3.79069 30.3195 8.51888 20.6086 8.51888 20.6086M35.5187 40.1086C35.5187 40.1086 39.5184 44.1088 44.0187 43.6086C48.519 43.1084 53.519 41.1084 53.5187 34.6086M35.5187 40.1086C35.5187 40.1086 39.019 37.6084 41.0187 36.6086C43.0184 35.6088 46.5187 33.1086 46.5187 33.1086M46.5187 33.1086L45.769 31.6086M46.5187 33.1086C48.519 35.1084 50.519 35.1084 53.5187 34.6086M53.5187 34.6086C55.519 33.1084 61.019 23.1084 52.0187 19.6086M52.0187 19.6086L51.0187 19.1086M52.0187 19.6086C54.519 14.1084 48.519 7.10839 42.0187 8.60858M42.0187 8.60858C40.019 5.10839 33.519 3.60854 29.0187 6.60858M29.0187 6.60858L28.0187 8.10858M29.0187 6.60858C24.5189 4.10875 18.5189 5.10859 15.7689 10.1086M15.7689 10.1086L15.5187 11.1086M15.7689 10.1086C11.769 9.60879 6.51886 15.1085 8.51888 20.6086M8.51888 20.6086L9.51872 22.1086" stroke="#A4243B" stroke-linecap="round" stroke-linejoin="round"/>
<path fill-rule="evenodd" clip-rule="evenodd" d="M9.01904 15.6089C11.417 13.1711 12.9132 12.2885 16.019 12.1089C16.3333 11.5481 16.472 11.2257 16.519 10.6089C21.4033 7.23156 23.9307 6.81268 28.019 9.10891C28.4108 9.26498 28.6273 9.24554 29.019 9.10891C32.0172 6.2833 36.019 6.6084 40.119 9.00891C40.4568 8.64572 40.7076 8.50434 41.219 8.3084C39.3081 6.54334 37.975 5.80711 34.519 5.50878C32.5902 5.42767 31.4781 5.84868 29.419 6.90862L28.419 8.50901C27.6353 8.54343 27.5728 8.50689 27.519 8.10901C27.6407 7.55784 27.8025 7.27819 28.319 6.80901C26.721 6.14929 25.5541 5.79878 24.019 5.80901C20.1284 6.15508 18.3899 6.99628 16.419 10.109L16.019 11.109C15.8981 11.4623 15.7852 11.5645 15.519 11.609C15.1689 11.5403 15.0455 11.4359 15.019 11.109L15.119 10.6089C12.2458 11.0738 10.8224 12.3323 9.01904 15.6089ZM30.119 17.1086C31.5541 13.9231 32.9923 13.0012 36.519 12.6086C42.0638 13.5111 43 15.3392 43.019 19.6086C44.7457 21.1901 45.3141 22.2369 44.519 24.8086L45.519 24.6086C46.2523 21.1907 46.0116 19.6174 43.519 17.9086C43.388 14.2827 42.5821 12.9947 40.019 12.0088C37.424 10.9938 35.9681 10.9863 33.3699 12.0088C31.2938 13.486 30.4985 14.5512 30.119 17.1086ZM35.519 19.1086C36.5007 20.2572 36.3449 21.5168 36.019 23.8086L37.019 23.6086C37.6049 21.6644 37.3156 20.26 36.519 17.6086C36.028 18.0033 35.7922 18.2996 35.519 19.1086ZM37.019 26.1086C32.4473 26.5487 30.0763 27.0329 26.019 28.1086C30.1138 26.144 32.715 25.4005 37.719 24.5086C37.5728 25.2365 37.4064 25.5749 37.019 26.1086ZM51.8191 18.9068L51.0191 18.6068C50.9044 14.6162 50.062 13.4507 48.0191 12.1068C45.119 10.4768 43.665 10.245 41.519 11.6073L39.8191 10.8066C41.2232 9.16854 43.0052 8.65748 44.8997 9.00074C46.2806 9.25093 47.7213 9.95494 49.119 11.0072C50.4423 12.0034 51.3221 13.475 51.719 14.8791C52.3167 16.9929 51.9928 18.9535 51.8191 18.9068ZM50.519 19.1084C58.2089 22.6092 57.2395 27.6064 54.519 32.6084C56.5753 25.0358 53.4923 23.3718 49.519 21.6084L50.019 20.1084L50.519 19.1084ZM44.5191 27.8086C42.7849 28.0371 41.8693 28.3805 40.4191 29.6086C41.3768 27.0829 42.684 26.3137 45.819 25.6084C48.6517 26.1164 49.5085 26.6285 50.819 27.6084C51.0884 27.6142 51.1101 27.5209 51.1356 27.4114C51.1624 27.2965 51.1934 27.1637 51.519 27.1084C52.1551 27.0005 52.4949 30.3213 49.0191 29.4084C47.3046 28.2332 46.3239 27.7991 44.5191 27.8086ZM30.019 34.4084C32.9097 33.2159 34.788 32.8134 38.719 32.7085C39.3192 32.1202 39.5429 31.7917 39.719 31.1084C35.2242 31.3979 33.0967 32.0971 30.019 34.4084Z" fill="#1F1F1F"/>
<path d="M16.019 12.1089L16.0248 12.2087C16.0589 12.2068 16.0896 12.1876 16.1063 12.1578L16.019 12.1089ZM9.01904 15.6089L8.93144 15.5607C8.90735 15.6045 8.91925 15.6593 8.95931 15.6891C8.99937 15.719 9.05531 15.7147 9.09033 15.679L9.01904 15.6089ZM16.519 10.6089L16.4622 10.5267C16.4374 10.5438 16.4216 10.5712 16.4193 10.6013L16.519 10.6089ZM28.019 9.10891L27.9696 9.19688L27.982 9.20181L28.019 9.10891ZM29.019 9.10891L29.052 9.20334C29.0652 9.19871 29.0774 9.19133 29.0876 9.18169L29.019 9.10891ZM40.119 9.00891L40.0685 9.09521C40.1089 9.11888 40.1604 9.11131 40.1923 9.07701L40.119 9.00891ZM41.219 8.3084L41.2548 8.40178C41.2871 8.38941 41.3107 8.36123 41.3172 8.32728C41.3238 8.29332 41.3123 8.2584 41.2869 8.23494L41.219 8.3084ZM34.519 5.50878L34.5277 5.40905L34.5232 5.40887L34.519 5.50878ZM29.419 6.90862L29.3733 6.81971C29.3573 6.82795 29.3438 6.84036 29.3342 6.85563L29.419 6.90862ZM28.419 8.50901L28.4234 8.60892C28.4563 8.60747 28.4864 8.58993 28.5038 8.562L28.419 8.50901ZM27.519 8.10901L27.4214 8.08746C27.4189 8.09893 27.4184 8.11076 27.4199 8.1224L27.519 8.10901ZM28.319 6.80901L28.3863 6.88304C28.4116 6.85999 28.4234 6.82557 28.4176 6.79181C28.4117 6.75805 28.3889 6.72966 28.3572 6.71658L28.319 6.80901ZM24.019 5.80901L24.0184 5.70868L24.0102 5.70941L24.019 5.80901ZM16.419 10.109L16.3346 10.0555C16.3313 10.0607 16.3285 10.0662 16.3262 10.0719L16.419 10.109ZM16.019 11.109L15.9261 11.0718L15.9244 11.0766L16.019 11.109ZM15.519 11.609L15.4998 11.7071C15.5116 11.7095 15.5237 11.7096 15.5355 11.7076L15.519 11.609ZM15.019 11.109L14.921 11.0894C14.9192 11.0985 14.9186 11.1078 14.9194 11.1171L15.019 11.109ZM15.119 10.6089L15.2171 10.6285C15.2235 10.5964 15.2138 10.5631 15.191 10.5395C15.1683 10.5159 15.1354 10.505 15.1031 10.5102L15.119 10.6089ZM36.519 12.6086L36.5351 12.5099C36.5261 12.5085 36.517 12.5082 36.508 12.5092L36.519 12.6086ZM30.119 17.1086L30.0201 17.094C30.0128 17.1433 30.043 17.1905 30.0909 17.2046C30.1388 17.2186 30.1897 17.1952 30.2102 17.1497L30.119 17.1086ZM43.019 19.6086L42.919 19.6091C42.9192 19.637 42.9309 19.6635 42.9515 19.6824L43.019 19.6086ZM44.519 24.8086L44.4235 24.7791C44.4131 24.8128 44.4212 24.8495 44.4448 24.8756C44.4684 24.9018 44.5041 24.9136 44.5387 24.9067L44.519 24.8086ZM45.519 24.6086L45.5387 24.7067C45.5777 24.6989 45.6085 24.6686 45.6168 24.6296L45.519 24.6086ZM43.519 17.9086L43.4191 17.9122C43.4203 17.9439 43.4364 17.9732 43.4625 17.9911L43.519 17.9086ZM40.019 12.0088L39.9826 12.102L39.9831 12.1022L40.019 12.0088ZM33.3699 12.0088L33.3333 11.9158C33.3257 11.9188 33.3185 11.9226 33.3119 11.9273L33.3699 12.0088ZM36.019 23.8086L35.92 23.7946C35.9155 23.8267 35.9268 23.859 35.9503 23.8813C35.9739 23.9036 36.0068 23.9131 36.0387 23.9067L36.019 23.8086ZM35.519 19.1086L35.4243 19.0766C35.413 19.11 35.4201 19.1468 35.443 19.1736L35.519 19.1086ZM37.019 23.6086L37.0387 23.7067C37.0749 23.6995 37.1041 23.6728 37.1148 23.6375L37.019 23.6086ZM36.519 17.6086L36.6148 17.5799C36.6052 17.548 36.5805 17.523 36.5487 17.5131C36.5169 17.5033 36.4823 17.5099 36.4564 17.5307L36.519 17.6086ZM26.019 28.1086L25.9758 28.0185C25.9293 28.0408 25.9074 28.0948 25.9252 28.1432C25.9431 28.1916 25.9948 28.2185 26.0447 28.2053L26.019 28.1086ZM37.019 26.1086L37.0286 26.2082C37.0572 26.2054 37.0831 26.1906 37.1 26.1674L37.019 26.1086ZM37.719 24.5086L37.8171 24.5283C37.8236 24.4959 37.8137 24.4623 37.7905 24.4387C37.7674 24.4151 37.7341 24.4044 37.7015 24.4102L37.719 24.5086ZM51.0191 18.6068L50.9191 18.6097C50.9203 18.6503 50.9459 18.6862 50.984 18.7004L51.0191 18.6068ZM51.8191 18.9068L51.7838 19.0009L51.7931 19.0034L51.8191 18.9068ZM48.0191 12.1068L48.0742 12.023L48.0681 12.0196L48.0191 12.1068ZM41.519 11.6073L41.4764 11.6978C41.5074 11.7124 41.5437 11.7101 41.5726 11.6918L41.519 11.6073ZM39.8191 10.8066L39.7432 10.7416C39.7229 10.7653 39.7148 10.7971 39.7213 10.8276C39.7278 10.8581 39.7482 10.8838 39.7765 10.8971L39.8191 10.8066ZM44.8997 9.00074L44.9176 8.90235L44.9176 8.90235L44.8997 9.00074ZM49.119 11.0072L49.0589 11.0871L49.0589 11.0871L49.119 11.0072ZM51.719 14.8791L51.8153 14.8519L51.8153 14.8519L51.719 14.8791ZM54.519 32.6084L54.4225 32.5822C54.4092 32.6312 54.4347 32.6823 54.4818 32.7012C54.5289 32.7201 54.5827 32.7007 54.6069 32.6562L54.519 32.6084ZM50.519 19.1084L50.5605 19.0174C50.5115 18.9951 50.4537 19.0155 50.4296 19.0637L50.519 19.1084ZM49.519 21.6084L49.4242 21.5768C49.4079 21.6256 49.4314 21.6789 49.4785 21.6998L49.519 21.6084ZM50.019 20.1084L49.9296 20.0637C49.9275 20.0679 49.9257 20.0723 49.9242 20.0768L50.019 20.1084ZM40.4191 29.6086L40.3256 29.5731C40.3094 29.6158 40.3241 29.6639 40.3613 29.6903C40.3986 29.7166 40.4489 29.7144 40.4837 29.6849L40.4191 29.6086ZM44.5191 27.8086L44.5185 27.7078L44.506 27.7095L44.5191 27.8086ZM45.819 25.6084L45.8367 25.51C45.8236 25.5076 45.8101 25.5079 45.7971 25.5108L45.819 25.6084ZM50.819 27.6084L50.7592 27.6885C50.7759 27.701 50.7961 27.7079 50.8169 27.7084L50.819 27.6084ZM51.1356 27.4114L51.233 27.4341L51.233 27.4341L51.1356 27.4114ZM51.519 27.1084L51.5023 27.0098L51.5023 27.0098L51.519 27.1084ZM49.0191 29.4084L48.9625 29.4909C48.972 29.4974 48.9825 29.5022 48.9937 29.5051L49.0191 29.4084ZM38.719 32.7085L38.7217 32.8085C38.747 32.8078 38.771 32.7976 38.789 32.7799L38.719 32.7085ZM30.019 34.4084L29.959 34.3284C29.9187 34.3587 29.9072 34.4141 29.9321 34.4579C29.9571 34.5016 30.0106 34.52 30.0572 34.5008L30.019 34.4084ZM39.719 31.1084L39.8159 31.1334C39.8239 31.1023 39.8165 31.0693 39.7961 31.0446C39.7756 31.0199 39.7446 31.0065 39.7126 31.0086L39.719 31.1084ZM16.0133 12.0091C14.4513 12.0994 13.286 12.367 12.2077 12.9232C11.1314 13.4784 10.1489 14.3177 8.94775 15.5388L9.09033 15.679C10.2872 14.4623 11.2518 13.6414 12.2994 13.1009C13.3453 12.5615 14.4809 12.298 16.0248 12.2087L16.0133 12.0091ZM16.4193 10.6013C16.3738 11.1983 16.2422 11.5061 15.9318 12.06L16.1063 12.1578C16.4245 11.59 16.5702 11.2532 16.6188 10.6165L16.4193 10.6013ZM28.068 9.02172C26.0138 7.86796 24.3373 7.38829 22.5539 7.63224C20.7759 7.87547 18.9066 8.83638 16.4622 10.5267L16.5759 10.6912C19.0157 9.00409 20.8523 8.06688 22.581 7.83039C24.3046 7.59463 25.9359 8.05363 27.9701 9.1961L28.068 9.02172ZM28.9861 9.01449C28.7932 9.08177 28.6533 9.11652 28.5174 9.11869C28.383 9.12084 28.2446 9.09111 28.0561 9.01601L27.982 9.20181C28.1853 9.28278 28.351 9.32138 28.5206 9.31866C28.6889 9.31597 28.8531 9.27268 29.052 9.20334L28.9861 9.01449ZM40.1696 8.92262C38.11 7.71675 36.0676 7.0276 34.1573 6.99913C32.2443 6.97061 30.469 7.605 28.9505 9.03614L29.0876 9.18169C30.5673 7.78721 32.2919 7.17134 34.1544 7.1991C36.0196 7.22691 38.0281 7.90056 40.0685 9.09521L40.1696 8.92262ZM41.1833 8.21502C40.9258 8.31366 40.7281 8.4007 40.551 8.51107C40.3729 8.62209 40.2191 8.75451 40.0458 8.94082L40.1923 9.07701C40.3568 8.90013 40.4972 8.78026 40.6568 8.6808C40.8174 8.5807 41.0009 8.49907 41.2548 8.40178L41.1833 8.21502ZM34.5104 5.60841C36.2331 5.75712 37.4181 6.01434 38.4081 6.45009C39.3975 6.88557 40.199 7.50236 41.1512 8.38186L41.2869 8.23494C40.3282 7.34937 39.5076 6.71552 38.4887 6.26704C37.4704 5.81883 36.2609 5.55878 34.5276 5.40915L34.5104 5.60841ZM29.4648 6.99753C31.5179 5.94065 32.6115 5.52865 34.5148 5.60869L34.5232 5.40887C32.5689 5.32668 31.4382 5.7567 29.3733 6.81971L29.4648 6.99753ZM28.5038 8.562L29.5038 6.96161L29.3342 6.85563L28.3342 8.45602L28.5038 8.562ZM27.4199 8.1224C27.4333 8.2211 27.4485 8.31099 27.4805 8.38419C27.5152 8.46374 27.5694 8.52384 27.654 8.56219C27.7322 8.59769 27.8311 8.61196 27.9512 8.6169C28.0729 8.6219 28.2276 8.61751 28.4234 8.60892L28.4147 8.40911C28.2186 8.41772 28.0716 8.42167 27.9594 8.41707C27.8457 8.4124 27.7786 8.39913 27.7366 8.38005C27.7008 8.36384 27.6804 8.34236 27.6638 8.30423C27.6444 8.25975 27.6317 8.19586 27.6181 8.09562L27.4199 8.1224ZM28.2518 6.73499C27.9906 6.97222 27.813 7.16692 27.6855 7.37626C27.5575 7.58661 27.4835 7.806 27.4214 8.08746L27.6167 8.13057C27.6762 7.86085 27.744 7.66483 27.8564 7.48027C27.9694 7.2947 28.1309 7.11498 28.3863 6.88304L28.2518 6.73499ZM24.0197 5.90901C25.5355 5.8989 26.6881 6.2439 28.2809 6.90145L28.3572 6.71658C26.7538 6.05468 25.5727 5.69865 24.0184 5.70901L24.0197 5.90901ZM16.5035 10.1625C17.4841 8.61384 18.4003 7.64058 19.5473 7.00911C20.6961 6.37665 22.0866 6.08129 24.0279 5.90862L24.0102 5.70941C22.0608 5.8828 20.6367 6.18108 19.4509 6.83391C18.2632 7.48775 17.3249 8.49145 16.3346 10.0555L16.5035 10.1625ZM16.1119 11.1462L16.5119 10.1462L16.3262 10.0719L15.9262 11.0719L16.1119 11.1462ZM15.5355 11.7076C15.6787 11.6837 15.7964 11.6417 15.8936 11.5462C15.9875 11.4539 16.052 11.3215 16.1137 11.1414L15.9244 11.0766C15.8652 11.2498 15.8128 11.3452 15.7534 11.4035C15.6974 11.4585 15.6256 11.4898 15.5026 11.5104L15.5355 11.7076ZM14.9194 11.1171C14.9334 11.2903 14.9746 11.4273 15.0781 11.5276C15.1782 11.6247 15.3217 11.6722 15.4998 11.7071L15.5383 11.5109C15.3662 11.4771 15.273 11.4381 15.2173 11.3841C15.1649 11.3333 15.1312 11.2546 15.1187 11.1009L14.9194 11.1171ZM15.021 10.5893L14.921 11.0894L15.1171 11.1286L15.2171 10.6285L15.021 10.5893ZM9.10665 15.6571C10.0064 14.0223 10.8059 12.9017 11.7318 12.1314C12.6551 11.3633 13.7111 10.938 15.135 10.7076L15.1031 10.5102C13.6537 10.7447 12.5615 11.1811 11.6039 11.9776C10.649 12.772 9.83505 13.9189 8.93144 15.5607L9.10665 15.6571ZM36.508 12.5092C34.7395 12.7061 33.4782 13.037 32.4778 13.729C31.4763 14.4218 30.7486 15.4677 30.0279 17.0676L30.2102 17.1497C30.9246 15.564 31.6335 14.5563 32.5915 13.8935C33.5506 13.2301 34.7718 12.9037 36.5301 12.708L36.508 12.5092ZM43.119 19.6082C43.1095 17.4718 42.872 15.9146 41.9177 14.7816C40.9637 13.6491 39.3119 12.9619 36.5351 12.5099L36.503 12.7073C39.2709 13.1579 40.8596 13.836 41.7647 14.9105C42.6694 15.9845 42.9095 17.476 42.919 19.6091L43.119 19.6082ZM44.6146 24.8382C45.0148 23.5436 45.0776 22.6152 44.8096 21.8058C44.5424 20.9989 43.9515 20.3271 43.0866 19.5349L42.9515 19.6824C43.8132 20.4716 44.3698 21.1139 44.6198 21.8687C44.8689 22.621 44.8183 23.5019 44.4235 24.7791L44.6146 24.8382ZM45.4994 24.5106L44.4994 24.7106L44.5387 24.9067L45.5387 24.7067L45.4994 24.5106ZM43.4625 17.9911C44.6981 18.8382 45.3606 19.6412 45.6322 20.6439C45.9055 21.6529 45.7876 22.88 45.4213 24.5877L45.6168 24.6296C45.9837 22.9194 46.1121 21.6508 45.8252 20.5916C45.5366 19.5259 44.8325 18.6879 43.5756 17.8262L43.4625 17.9911ZM39.9831 12.1022C41.2546 12.5912 42.0733 13.1488 42.5953 14.0201C43.1199 14.8958 43.3537 16.1028 43.4191 17.9122L43.619 17.905C43.5533 16.0885 43.3187 14.8385 42.7668 13.9173C42.2123 12.9917 41.3465 12.4123 40.0549 11.9155L39.9831 12.1022ZM33.4065 12.1019C34.7 11.5928 35.7002 11.3438 36.6956 11.3448C37.691 11.3457 38.6904 11.5965 39.9826 12.102L40.0555 11.9157C38.7526 11.4061 37.7266 11.1457 36.6958 11.1448C35.6648 11.1438 34.638 11.4023 33.3333 11.9158L33.4065 12.1019ZM30.218 17.1233C30.4065 15.8525 30.697 14.9625 31.1918 14.2085C31.6874 13.4535 32.3932 12.8265 33.4279 12.0903L33.3119 11.9273C32.2705 12.6684 31.5406 13.3126 31.0246 14.0988C30.508 14.886 30.2111 15.8073 30.0201 17.094L30.218 17.1233ZM36.118 23.8227C36.4422 21.543 36.6113 20.2326 35.5951 19.0437L35.443 19.1736C36.3902 20.2817 36.2476 21.4907 35.92 23.7946L36.118 23.8227ZM36.9994 23.5106L35.9994 23.7106L36.0387 23.9067L37.0387 23.7067L36.9994 23.5106ZM36.4233 17.6374C37.2192 20.2867 37.5 21.666 36.9233 23.5798L37.1148 23.6375C37.7099 21.6628 37.412 20.2333 36.6148 17.5799L36.4233 17.6374ZM35.6138 19.1406C35.7489 18.7404 35.8726 18.4738 36.0197 18.2599C36.1664 18.0468 36.3397 17.8811 36.5817 17.6866L36.4564 17.5307C36.2074 17.7309 36.0173 17.9106 35.855 18.1466C35.6931 18.3818 35.5623 18.6679 35.4243 19.0766L35.6138 19.1406ZM26.0447 28.2053C30.0975 27.1308 32.4631 26.6477 37.0286 26.2082L37.0095 26.0091C32.4315 26.4498 30.0551 26.9351 25.9934 28.012L26.0447 28.2053ZM37.7015 24.4102C32.6909 25.3033 30.0806 26.0489 25.9758 28.0185L26.0623 28.1988C30.147 26.239 32.739 25.4978 37.7366 24.6071L37.7015 24.4102ZM37.1 26.1674C37.2955 25.898 37.4384 25.6736 37.5508 25.4223C37.6632 25.1709 37.7431 24.8965 37.8171 24.5283L37.621 24.4889C37.5488 24.8487 37.4724 25.1075 37.3682 25.3406C37.2639 25.5739 37.13 25.7855 36.9381 26.0499L37.1 26.1674ZM50.984 18.7004L51.784 19.0004L51.8542 18.8132L51.0542 18.5132L50.984 18.7004ZM47.9641 12.1903C48.9798 12.8585 49.684 13.474 50.1528 14.4091C50.6231 15.3475 50.8619 16.6188 50.9191 18.6097L51.119 18.6039C51.0616 16.6042 50.8218 15.2975 50.3315 14.3195C49.8397 13.3382 49.1012 12.699 48.074 12.0232L47.9641 12.1903ZM41.5726 11.6918C42.6338 11.0181 43.5118 10.7458 44.4771 10.8345C45.4488 10.9239 46.5216 11.3798 47.9701 12.194L48.0681 12.0196C46.6165 11.2038 45.5122 10.7288 44.4954 10.6354C43.4723 10.5413 42.5503 10.8342 41.4654 11.5229L41.5726 11.6918ZM39.7765 10.8971L41.4764 11.6978L41.5617 11.5169L39.8617 10.7162L39.7765 10.8971ZM44.9176 8.90235C42.9905 8.55319 41.172 9.07467 39.7432 10.7416L39.895 10.8717C41.2745 9.26241 43.0199 8.76177 44.8819 9.09914L44.9176 8.90235ZM49.1792 10.9273C47.773 9.8687 46.3181 9.15609 44.9176 8.90235L44.8819 9.09914C46.2431 9.34577 47.6695 10.0412 49.0589 11.0871L49.1792 10.9273ZM51.8153 14.8519C51.4133 13.4301 50.5225 11.9385 49.1792 10.9273L49.0589 11.0871C50.3622 12.0682 51.2309 13.52 51.6228 14.9063L51.8153 14.8519ZM51.7931 19.0034C51.8562 19.0203 51.9034 18.9846 51.9254 18.9616C51.9486 18.9374 51.9662 18.9059 51.9801 18.8754C52.0088 18.8125 52.0352 18.7234 52.0585 18.6155C52.1055 18.3981 52.1441 18.0852 52.1583 17.7069C52.1865 16.9498 52.1174 15.9205 51.8153 14.8519L51.6228 14.9063C51.9183 15.9515 51.986 16.9594 51.9584 17.6994C51.9446 18.0696 51.9069 18.3703 51.863 18.5733C51.8409 18.6757 51.8181 18.7486 51.7982 18.7923C51.7934 18.8029 51.7892 18.8107 51.7858 18.8162C51.7823 18.8219 51.7805 18.8238 51.7809 18.8234C51.781 18.8233 51.7861 18.8178 51.7968 18.8132C51.8092 18.808 51.8265 18.8052 51.845 18.8102L51.7931 19.0034ZM54.6069 32.6562C55.969 30.1518 56.9062 27.6264 56.5216 25.2793C56.1354 22.9223 54.4229 20.7758 50.5605 19.0174L50.4776 19.1994C54.305 20.9418 55.9527 23.0443 56.3242 25.3116C56.6973 27.5888 55.7896 30.0629 54.4312 32.5606L54.6069 32.6562ZM49.4785 21.6998C51.4692 22.5833 53.2041 23.4299 54.1958 24.9838C55.184 26.5319 55.4476 28.8071 54.4225 32.5822L54.6155 32.6346C55.6467 28.8371 55.397 26.494 54.3644 24.8762C53.3354 23.264 51.5422 22.3969 49.5596 21.517L49.4785 21.6998ZM49.9242 20.0768L49.4242 21.5768L49.6139 21.64L50.1139 20.14L49.9242 20.0768ZM50.4296 19.0637L49.9296 20.0637L50.1085 20.1531L50.6085 19.1531L50.4296 19.0637ZM40.4837 29.6849C41.2044 29.0746 41.7873 28.6883 42.4019 28.4257C43.0167 28.163 43.6689 28.0215 44.5321 27.9077L44.506 27.7095C43.6351 27.8242 42.9624 27.9687 42.3233 28.2418C41.6839 28.515 41.0839 28.9145 40.3544 29.5323L40.4837 29.6849ZM45.7971 25.5108C44.2276 25.8639 43.1002 26.2359 42.2446 26.8444C41.3851 27.4556 40.8089 28.2985 40.3256 29.5731L40.5126 29.644C40.987 28.393 41.5433 27.5885 42.3605 27.0074C43.1817 26.4234 44.2755 26.0582 45.841 25.706L45.7971 25.5108ZM50.8789 27.5283C50.2219 27.037 49.6724 26.6583 48.9292 26.3396C48.1872 26.0213 47.2564 25.7646 45.8367 25.51L45.8014 25.7068C47.2143 25.9602 48.1283 26.2136 48.8504 26.5234C49.5714 26.8326 50.1057 27.1999 50.7592 27.6885L50.8789 27.5283ZM51.0383 27.3888C51.0241 27.4493 51.0172 27.4657 51.0037 27.4772C50.9902 27.4888 50.949 27.5112 50.8212 27.5084L50.8169 27.7084C50.9585 27.7114 51.0628 27.69 51.1339 27.6291C51.205 27.5681 51.2216 27.4831 51.233 27.4341L51.0383 27.3888ZM51.5023 27.0098C51.3285 27.0393 51.2154 27.0923 51.1428 27.1686C51.0701 27.2451 51.0513 27.3327 51.0383 27.3888L51.233 27.4341C51.2467 27.3753 51.2568 27.339 51.2877 27.3064C51.3187 27.2738 51.3839 27.2328 51.5358 27.207L51.5023 27.0098ZM48.9937 29.5051C49.8756 29.7367 50.5296 29.7036 51.0031 29.5116C51.4789 29.3187 51.7607 28.9699 51.9044 28.5961C52.047 28.2249 52.0542 27.8278 51.9828 27.5275C51.9473 27.3778 51.8905 27.2451 51.8147 27.151C51.739 27.0569 51.6313 26.9879 51.5023 27.0098L51.5358 27.207C51.5658 27.2019 51.6079 27.2131 51.6589 27.2764C51.7099 27.3396 51.7568 27.4415 51.7883 27.5737C51.8509 27.8372 51.8451 28.193 51.7177 28.5244C51.5913 28.8532 51.3462 29.1567 50.9279 29.3263C50.5074 29.4968 49.9005 29.5365 49.0445 29.3117L48.9937 29.5051ZM44.5196 27.9086C45.413 27.9039 46.0969 28.0089 46.7682 28.258C47.4414 28.5078 48.1069 28.9044 48.9625 29.4909L49.0756 29.3259C48.2167 28.7372 47.5347 28.3291 46.8377 28.0705C46.1388 27.8111 45.4299 27.7038 44.5185 27.7086L44.5196 27.9086ZM38.7164 32.6085C34.7749 32.7137 32.8844 33.1181 29.9809 34.316L30.0572 34.5008C32.9351 33.3136 34.8011 32.9131 38.7217 32.8085L38.7164 32.6085ZM39.6222 31.0834C39.5359 31.4183 39.4394 31.6608 39.2936 31.8905C39.147 32.1217 38.9476 32.3444 38.649 32.6371L38.789 32.7799C39.0906 32.4843 39.3032 32.2486 39.4625 31.9977C39.6227 31.7452 39.7261 31.4818 39.8159 31.1334L39.6222 31.0834ZM30.0791 34.4884C31.6126 33.3367 32.9045 32.5904 34.3697 32.095C35.836 31.5992 37.4815 31.3527 39.7255 31.2082L39.7126 31.0086C37.4618 31.1536 35.7962 31.4015 34.3056 31.9055C32.8139 32.4099 31.5031 33.1688 29.959 34.3284L30.0791 34.4884Z" fill="#1F1F1F"/>
</svg>
